<svg width="14" height="14" viewBox="0 0 14 14" fill="none" xmlns="http://www.w3.org/2000/svg">
<path d="M1 13.5C0.87143 13.5 0.744371 13.4513 0.646522 13.3535C0.451159 13.1581 0.451159 12.8419 0.646522 12.6465L12.6465 0.646522C12.8419 0.451159 13.1581 0.451159 13.3535 0.646522C13.5488 0.841885 13.5488 1.15812 13.3535 1.35348L1.35348 13.3535C1.25563 13.4513 1.12857 13.5 1 13.5Z" fill="#333B41" stroke="black"/>
<path d="M13 13.5C12.8714 13.5 12.7444 13.4513 12.6465 13.3535L0.646522 1.35348C0.451159 1.15812 0.451159 0.841885 0.646522 0.646522C0.841885 0.451159 1.15812 0.451159 1.35348 0.646522L13.3535 12.6465C13.5488 12.8419 13.5488 13.1581 13.3535 13.3535C13.2556 13.4513 13.1286 13.5 13 13.5Z" fill="#333B41" stroke="black"/>
</svg>
